<svg width="22" height="19" viewBox="0 0 22 19" fill="none" xmlns="http://www.w3.org/2000/svg">
<path d="M9.45457 12.1469C9.45454 12.3725 9.46866 12.598 9.49687 12.8219C9.46866 12.598 9.45454 12.3725 9.45457 12.1469C9.45631 11.8078 9.49036 11.4697 9.55627 11.1371" stroke="#057BFF" stroke-width="1.6" stroke-linecap="round" stroke-linejoin="round"/>
<path fill-rule="evenodd" clip-rule="evenodd" d="M14.8545 17.5469C17.7062 17.5503 20.0691 15.3356 20.25 12.4896C20.431 9.64357 18.3677 7.14743 15.5384 6.78962C12.7092 6.4318 10.0894 8.33567 9.55616 11.1371C8.30623 10.5379 6.8169 10.7651 5.8024 11.7096C4.78791 12.6542 4.45513 14.1235 4.96366 15.413C5.47219 16.7025 6.71833 17.5491 8.10446 17.5469H14.8545Z" stroke="#057BFF" stroke-width="1.6" stroke-linecap="round" stroke-linejoin="round"/>
<path d="M4.72947 5.39688C4.72944 5.62255 4.74357 5.84799 4.77177 6.07188C4.74357 5.84799 4.72944 5.62255 4.72947 5.39688C4.73121 5.05782 4.76527 4.71969 4.83117 4.38708" stroke="#057BFF" stroke-width="1.6" stroke-linecap="round" stroke-linejoin="round"/>
<path d="M15.3576 4.03971C14.7216 1.59624 12.4773 -0.0802873 9.95374 0.00296733C7.43021 0.086222 5.30126 1.90703 4.82764 4.38711C3.57772 3.7879 2.08838 4.01504 1.07389 4.95958C0.0593902 5.90413 -0.273387 7.37347 0.235144 8.66295C0.743675 9.95243 1.98981 10.7991 3.37594 10.7969" stroke="#057BFF" stroke-width="1.6" stroke-linecap="round" stroke-linejoin="round"/>
</svg>
